<?xml version="1.0" encoding="UTF-8" standalone="no"?>
<!DOCTYPE svg PUBLIC "-//W3C//DTD SVG 1.1//EN" "http://www.w3.org/Graphics/SVG/1.1/DTD/svg11.dtd">
<svg version="1.1" xmlns="http://www.w3.org/2000/svg" xmlns:xlink="http://www.w3.org/1999/xlink" preserveAspectRatio="xMidYMid meet" viewBox="0 0 30 30" width="30" height="30"><defs><path d="M3.7 12.62C2.59 13.07 1.85 12.45 1.48 13.16C0.95 14.15 2.71 14.14 3.2 14.13C4.96 14.11 6.28 13.03 7.67 12.06C8.56 11.44 9.49 10.72 10.64 10.83C12.76 11.01 13.73 12.39 15.23 12.37C16.55 12.36 17.98 10.75 19.82 10.84C20.62 10.88 21.9 11.67 22.55 12.13C23.83 13.04 25.26 14.11 26.89 14.13C27.45 14.14 29.12 14.1 28.48 13.05C28.07 12.38 27.41 12.99 26.14 12.42C23.67 11.31 22.52 9.39 19.57 9.42C18.62 9.43 17.71 9.7 16.84 10.08C16.43 10.25 15.64 10.71 15.23 10.72C14.71 10.73 13.56 10.06 13 9.86C11.87 9.46 10.47 9.31 9.28 9.48C7.3 9.92 6.07 11.64 3.7 12.62ZM19.08 17.18C17.69 18.05 17.21 19.06 15.36 19.19C14.12 19.28 12.65 18.63 11.64 17.96C10.98 17.54 10.94 17.41 10.15 17.02C9.63 16.77 8.38 16.24 7.84 16.62C7.54 16.83 7.56 17.28 7.77 17.55C7.94 17.77 9.05 18.19 9.4 18.39C9.4 18.39 11.14 19.48 11.14 19.48C12.47 20.24 14.31 20.75 15.85 20.54C16.75 20.43 17.81 20.13 18.58 19.64C19.34 19.17 19.6 18.71 20.56 18.18C21.34 17.76 22.13 17.86 22.32 17.23C22.49 16.66 22.01 16.46 21.56 16.43C20.75 16.55 19.77 16.74 19.08 17.18Z" id="ahJHKL6lo"></path></defs><g><g><g><use xlink:href="#ahJHKL6lo" opacity="1" fill="#000000" fill-opacity="1"></use><g><use xlink:href="#ahJHKL6lo" opacity="1" fill-opacity="0" stroke="#000000" stroke-width="1" stroke-opacity="1"></use></g></g></g></g></svg>