<?xml version="1.0" encoding="UTF-8" standalone="no"?>
<!DOCTYPE svg PUBLIC "-//W3C//DTD SVG 1.1//EN" "http://www.w3.org/Graphics/SVG/1.1/DTD/svg11.dtd">
<svg version="1.1" xmlns="http://www.w3.org/2000/svg" xmlns:xlink="http://www.w3.org/1999/xlink" preserveAspectRatio="xMidYMid meet" viewBox="0 0 325 160" width="325" height="160">
  <defs>
    <path d="M36.92 53.51C24.57 58.61 16.33 51.7 12.21 59.53C6.38 70.58 25.88 70.42 31.41 70.36C50.92 70.13 65.57 58.11 81.01 47.32C90.91 40.4 101.24 32.49 114.09 33.61C137.62 35.63 148.36 50.96 165.07 50.82C179.68 50.7 195.62 32.74 216.06 33.8C224.92 34.26 239.16 43.01 246.38 48.12C260.63 58.22 276.53 70.15 294.61 70.36C300.88 70.43 319.36 69.97 312.27 58.34C307.73 50.86 300.44 57.67 286.34 51.36C258.83 39.04 246.12 17.62 213.3 18C202.76 18.12 192.62 21.12 182.99 25.28C178.37 27.27 169.58 32.29 165.07 32.41C159.27 32.57 146.46 25.09 140.27 22.89C127.72 18.39 112.12 16.81 98.93 18.63C76.95 23.53 63.31 42.61 36.92 53.51ZM207.79 104.2C192.37 113.92 187.01 125.11 166.45 126.61C152.71 127.6 136.4 120.3 125.11 112.94C117.84 108.2 117.44 106.73 108.57 102.41C102.83 99.62 88.94 93.8 82.99 97.95C79.57 100.35 79.82 105.32 82.2 108.35C84.09 110.76 96.37 115.48 100.31 117.64C100.31 117.64 119.6 129.79 119.6 129.79C134.41 138.24 154.86 143.85 171.96 141.62C181.97 140.32 193.72 137.01 202.28 131.6C210.69 126.29 213.57 121.22 224.33 115.38C232.9 110.72 241.73 111.81 243.84 104.74C245.7 98.46 240.42 96.18 235.35 95.92C226.35 97.19 215.52 99.33 207.79 104.2Z" id="a1XN0Q6vFl">
    </path>
  </defs>
  <g>
    <g>
      <g>
        <use xlink:href="#a1XN0Q6vFl" opacity="1" fill="#00000" fill-opacity="1"></use>
        <g>
          <use xlink:href="#a1XN0Q6vFl" opacity="1" fill-opacity="0" stroke="#00000" stroke-width="1" stroke-opacity="1"></use>
        </g>
      </g>
    </g>
  </g>
</svg>
