<?xml version="1.0" encoding="UTF-8" standalone="no"?>
<svg
   xmlns:dc="http://purl.org/dc/elements/1.1/"
   xmlns:cc="http://creativecommons.org/ns#"
   xmlns:rdf="http://www.w3.org/1999/02/22-rdf-syntax-ns#"
   xmlns:svg="http://www.w3.org/2000/svg"
   xmlns="http://www.w3.org/2000/svg"
   xmlns:xlink="http://www.w3.org/1999/xlink"
   xmlns:sodipodi="http://sodipodi.sourceforge.net/DTD/sodipodi-0.dtd"
   xmlns:inkscape="http://www.inkscape.org/namespaces/inkscape"
   width="800"
   height="160"
   viewBox="0 0 211.66666 42.333334"
   version="1.1"
   id="svg8"
   inkscape:version="1.0.1 (0767f8302a, 2020-10-17)"
   sodipodi:docname="rysunek2.svg">
  <defs
     id="defs2">
    <filter
       id="editing-hover"
       x="-1"
       y="-1"
       width="3"
       height="3">
      <feFlood
         flood-color="none"
         result="flood"
         id="feFlood10" />
      <feComposite
         operator="in"
         in2="SourceAlpha"
         in="flood"
         result="shadow"
         id="feComposite12" />
      <feOffset
         dx="0"
         dy="0"
         in="SourceGraphic"
         result="offset-1"
         id="feOffset14" />
      <feOffset
         dx="0"
         dy="0"
         in="shadow"
         result="offset-2"
         id="feOffset16" />
      <feMerge
         id="feMerge22">
        <feMergeNode
           in="offset-2"
           id="feMergeNode18" />
        <feMergeNode
           in="offset-1"
           id="feMergeNode20" />
      </feMerge>
    </filter>
    <filter
       id="editing-hover-3"
       x="-1"
       y="-1"
       width="3"
       height="3">
      <feFlood
         flood-color="none"
         result="flood"
         id="feFlood54" />
      <feComposite
         operator="in"
         in2="SourceAlpha"
         in="flood"
         result="shadow"
         id="feComposite56" />
      <feOffset
         dx="0"
         dy="0"
         in="SourceGraphic"
         result="offset-1"
         id="feOffset58" />
      <feOffset
         dx="0"
         dy="0"
         in="shadow"
         result="offset-2"
         id="feOffset60" />
      <feMerge
         id="feMerge66">
        <feMergeNode
           in="offset-2"
           id="feMergeNode62" />
        <feMergeNode
           in="offset-1"
           id="feMergeNode64" />
      </feMerge>
    </filter>
    <path
       d="m 36.92,53.51 c -12.35,5.1 -20.59,-1.81 -24.71,6.02 -5.83,11.05 13.67,10.89 19.2,10.83 19.51,-0.23 34.16,-12.25 49.6,-23.04 9.9,-6.92 20.23,-14.83 33.08,-13.71 23.53,2.02 34.27,17.35 50.98,17.21 14.61,-0.12 30.55,-18.08 50.99,-17.02 8.86,0.46 23.1,9.21 30.32,14.32 14.25,10.1 30.15,22.03 48.23,22.24 6.27,0.07 24.75,-0.39 17.66,-12.02 -4.54,-7.48 -11.83,-0.67 -25.93,-6.98 C 258.83,39.04 246.12,17.62 213.3,18 c -10.54,0.12 -20.68,3.12 -30.31,7.28 -4.62,1.99 -13.41,7.01 -17.92,7.13 -5.8,0.16 -18.61,-7.32 -24.8,-9.52 -12.55,-4.5 -28.15,-6.08 -41.34,-4.26 -21.98,4.9 -35.62,23.98 -62.01,34.88 z m 170.87,50.69 c -15.42,9.72 -20.78,20.91 -41.34,22.41 -13.74,0.99 -30.05,-6.31 -41.34,-13.67 -7.27,-4.74 -7.67,-6.21 -16.54,-10.53 -5.74,-2.79 -19.63,-8.61 -25.58,-4.46 -3.42,2.4 -3.17,7.37 -0.79,10.4 1.89,2.41 14.17,7.13 18.11,9.29 0,0 19.29,12.15 19.29,12.15 14.81,8.45 35.26,14.06 52.36,11.83 10.01,-1.3 21.76,-4.61 30.32,-10.02 8.41,-5.31 11.29,-10.38 22.05,-16.22 8.57,-4.66 17.4,-3.57 19.51,-10.64 1.86,-6.28 -3.42,-8.56 -8.49,-8.82 -9,1.27 -19.83,3.41 -27.56,8.28 z"
       id="a1XN0Q6vFl" />
  </defs>
  <sodipodi:namedview
     id="base"
     pagecolor="#ffffff"
     bordercolor="#666666"
     borderopacity="1.0"
     inkscape:pageopacity="0.0"
     inkscape:pageshadow="2"
     inkscape:zoom="1.16"
     inkscape:cx="320.22881"
     inkscape:cy="135.11521"
     inkscape:document-units="mm"
     inkscape:current-layer="layer1"
     inkscape:document-rotation="0"
     showgrid="false"
     units="px"
     inkscape:window-width="1920"
     inkscape:window-height="977"
     inkscape:window-x="2048"
     inkscape:window-y="27"
     inkscape:window-maximized="1" />
  <metadata
     id="metadata5">
    <rdf:RDF>
      <cc:Work
         rdf:about="">
        <dc:format>image/svg+xml</dc:format>
        <dc:type
           rdf:resource="http://purl.org/dc/dcmitype/StillImage" />
        <dc:title></dc:title>
      </cc:Work>
    </rdf:RDF>
  </metadata>
  <g
     inkscape:label="Warstwa 1"
     inkscape:groupmode="layer"
     id="layer1">
    <path
       d="m -82.42221,70.06875 v 0 0 q -1.09,2.69 -3.14,7.94 v 0 0 q -4.48,11.52 -7.3,17.21 v 0 0 q 1.86,-2.3 5.76,-6.53 v 0 0 q 0,-0.32 0,-0.92 v 0 0 q 0,-0.61 0.07,-1.57 v 0 0 q 0.19,-0.71 0.64,-1.06 v 0 0 q 0.45,-0.35 0.77,0.67 v 0 0 q 0,0.32 0.12,0.96 v 0 l 0.07,-0.19 v 0 q 1.6,-1.79 10.62,-9.34 v 0 0 q 9.03,-7.55 10.75,-8.35 v 0 0 q 1.73,-0.8 2.92,-0.8 v 0 0 q 1.18,0 1.63,0.54 v 0 0 q 0.45,0.54 0.45,1.09 v 0 0 q 0,0.54 -0.55,1.02 v 0 0 q -0.54,0.48 -1.34,0.87 v 0 0 q -0.8,0.38 -4.99,2.75 v 0 0 q -4.2,2.37 -7.65,4.67 v 0 0 q -8.32,5.63 -11.52,9.15 v 0 0 q 1.47,5.31 2.94,8.39 v 0 0 q 1.47,3.07 4.64,6.94 v 0 0 q 3.17,3.87 5.79,3.87 v 0 0 q 1.09,0 1.54,-0.57 v 0 0 q 0.45,-0.58 0.32,-1.48 v 0 0 q -0.38,-1.79 -1.15,-2.91 v 0 0 q -0.77,-1.12 -0.16,-1.12 v 0 0 q 0.61,0 1.15,0.55 v 0 0 q 0.54,0.54 1.02,1.6 v 0 0 q 0.48,1.05 0.48,1.82 v 0 0 q -0.06,1.79 -1.72,2.82 v 0 0 q -1.67,1.02 -3.2,1.02 v 0 0 q -2.88,0 -5.25,-1.7 v 0 0 q -2.37,-1.69 -3.97,-4.64 v 0 0 q -2.88,-5.37 -4.16,-12.41 v 0 0 q -7.17,8.38 -9.86,12.09 v 0 0 q -6.59,10.69 -12.6,12.55 v 0 0 q -1.73,0.57 -3.01,0.57 v 0 0 q -4.74,0 -5.89,-4.03 v 0 0 q -0.06,-0.25 -0.06,-0.54 v 0 0 q 0,-0.29 0.09,-0.71 v 0 0 q 0.1,-0.41 0.42,-0.28 v 0 0 q 0.32,0.12 0.64,1.21 v 0 0 q 0.64,1.92 2.43,2.37 v 0 0 q 1.41,0.26 2.46,0.26 v 0 0 q 1.06,0 1.83,-0.26 v 0 0 q 6.59,-2.11 12.8,-13.44 v 0 0 q 4.99,-9.41 9.21,-23.68 v 0 0 q -3.39,3.01 -8.32,3.52 v 0 0 q -0.44,0 -0.64,-0.22 v 0 0 q -0.19,-0.23 0,-0.52 v 0 0 q 0.2,-0.28 0.64,-0.35 v 0 0 q 2.76,-0.25 5.73,-2.85 v 0 0 q 2.98,-2.59 4.45,-5.98 v 0 0 q 0.19,-0.83 2.21,-0.83 v 0 0 q 2.01,0 1.89,0.83 z m 30.2,29.12 v 0 0 q 1.16,-2.37 1.16,-3.65 v 0 0 q 0,-1.28 -0.29,-2.01 v 0 0 q -0.29,-0.74 0.25,-1.25 v 0 0 q 0.55,-0.51 1.38,-0.39 v 0 0 q 1.28,0.32 1.28,2.88 v 0 0 q 0,2.56 -3.01,6.72 v 0 0 q 0.07,1.73 1.79,1.73 v 0 0 q 1.73,0 5.25,-3.71 v 0 0 q 1.67,-1.92 2.08,-2.5 v 0 0 q 0.42,-0.57 0.74,-0.41 v 0 0 q 0.32,0.16 0.32,0.29 v 0 0 q 0,0.64 -2.31,3.32 v 0 0 q -3.64,4.48 -6.46,4.48 v 0 0 q -1.86,0 -2.62,-1.6 v 0 0 q -1.28,1.35 -2.5,2.5 v 0 0 q -2.5,2.11 -5.57,2.11 v 0 0 q -1.73,0 -2.88,-0.83 v 0 0 q -2.24,-1.34 -2.24,-4.8 v 0 0 q 0,-3.78 2.56,-7.68 v 0 0 q 1.47,-2.3 3.46,-4.03 v 0 0 q 3.13,-2.75 5.95,-2.75 v 0 0 q 0.7,0 1.34,0.19 v 0 0 q 1.92,0.64 1.92,2.43 v 0 0 q 0,1.47 -0.76,1.47 v 0 0 q -0.32,-0.13 -0.32,-0.96 v 0 0 q 0,-1.15 -1.28,-1.15 v 0 0 q -2.24,0 -5.76,4.1 v 0 0 q -3.52,4.09 -4.23,8.25 v 0 0 q -0.13,0.71 -0.13,1.57 v 0 0 q 0,0.86 0.58,1.98 v 0 0 q 0.58,1.12 2.14,1.12 v 0 0 q 1.57,0 3.43,-1.4 v 0 0 q 1.85,-1.41 3.33,-3.59 v 0 l -0.2,-0.38 v 0 q -0.25,-1.03 0.26,-1.67 v 0 0 q 0.51,-0.64 1.34,-0.38 z m 9.86,7.68 v 0 0 q -0.83,0.96 -0.35,1.54 v 0 0 q 0.48,0.57 1.09,0.57 v 0 0 q 0.6,0 1.24,-0.19 v 0 0 q 2.76,-0.83 5.35,-3.3 v 0 0 q 2.59,-2.46 2.59,-5.02 v 0 0 q 0,-1.41 -3.14,-3.07 v 0 0 q -1.47,-0.77 -1.66,-0.9 v 0 0 q -1.73,-1.15 -2.18,-2.3 v 0 0 q -0.89,1.53 -2.88,4.41 v 0 0 q -0.44,0.52 -0.83,0.23 v 0 0 q -0.38,-0.29 -0.06,-0.8 v 0 0 q 2.62,-3.59 3.45,-6.02 v 0 0 q 0.45,-3.52 5.12,-6.33 v 0 0 q 4.68,-2.82 8.52,-2.82 v 0 0 q 2.43,0 3.42,0.86 v 0 0 q 0.99,0.87 0.99,1.7 v 0 0 q 0,0.83 -0.48,1.92 v 0 0 q -0.48,1.09 -1.95,2.05 v 0 0 q -0.38,0.25 -0.64,-0.13 v 0 0 q -0.13,-0.38 0.54,-1.06 v 0 0 q 0.68,-0.67 0.87,-1.82 v 0 0 q 0.19,-1.15 -1.03,-1.41 v 0 0 q -0.19,0 -0.38,0 v 0 0 q -2.5,0 -6.24,1.86 v 0 0 q -3.74,1.85 -5.86,4.8 v 0 0 q -0.83,1.09 -0.83,2.21 v 0 0 q 0,1.12 1.54,2.01 v 0 0 q 0.64,0.39 2.17,1.22 v 0 0 q 1.54,0.83 2.18,1.21 v 0 0 q 0.64,0.39 1.54,1.22 v 0 0 q 0.89,0.83 0.96,1.54 v 0 0 q 0.32,1.92 -1.8,4.22 v 0 0 q -3,3.33 -8.96,4.67 v 0 0 q -1.34,0.32 -2.72,0.32 v 0 0 q -1.37,0 -1.88,-1.02 v 0 0 q -0.2,-0.26 -0.2,-0.8 v 0 0 q 0,-0.55 1.03,-1.76 v 0 0 q 0.96,-0.96 3.07,-1.86 v 0 0 q 0.19,-0.06 0.32,0.07 v 0 0 q 0.13,0.12 0.06,0.32 v 0 0 q -0.06,0.19 -0.67,0.44 v 0 0 q -0.61,0.26 -1.31,1.22 z m 26.69,-17.28 v 0 0 q 0,0.45 -0.71,1.95 v 0 0 q -0.7,1.51 -4.03,10.34 v 0 0 q 2.31,-2.82 5.83,-6.53 v 0 0 q 7.1,-7.42 9.79,-7.42 v 0 0 q 0.57,0 1.12,0.32 v 0 0 q 0.54,0.32 0.54,1.44 v 0 0 q 0,1.12 -0.7,2.49 v 0 0 q -0.71,1.38 -1.6,3.36 v 0 0 q -0.9,1.99 -1.22,2.5 v 0 0 q 5.38,-4.87 8.13,-5.92 v 0 0 q 2.75,-1.06 3.65,-1.06 v 0 0 q 0.89,0 0.89,0.64 v 0 0 q 0,0.39 -0.96,1.86 v 0 0 q -0.96,1.47 -2.11,4.35 v 0 0 q -1.15,2.88 -1.28,4.03 v 0 0 q -0.13,1.15 -0.13,2.05 v 0 0 q 0,0.9 0.52,1.47 v 0 0 q 0.96,1.03 2.62,0.13 v 0 0 q 1.66,-0.9 4.64,-3.58 v 0 0 q 2.98,-2.69 4.77,-5.25 v 0 0 q 0.25,-0.32 0.61,-0.16 v 0 0 q 0.35,0.16 0.35,0.32 v 0 0 q 0,0.16 -0.13,0.35 v 0 0 q -0.96,1.73 -3.46,4.42 v 0 0 q -4.09,4.41 -6.84,5.44 v 0 0 q -3.01,1.02 -4.36,0.25 v 0 0 q -1.34,-0.77 -1.66,-1.73 v 0 0 q -0.32,-0.96 -0.32,-1.92 v 0 0 q 0,-3 1.18,-6.01 v 0 0 q 1.19,-3.01 1.89,-4.1 v 0 0 q -2.43,1.03 -4.16,2.56 v 0 0 q -2.62,2.31 -4.22,4.03 v 0 l -1.28,1.41 v 0 q -0.58,1.41 -2.02,1.6 v 0 0 q -1.44,0.19 -1.37,-0.96 v 0 0 q 0.12,-1.21 2.36,-5.44 v 0 0 q 2.24,-4.22 2.24,-4.7 v 0 0 q 0,-0.48 -0.51,-0.48 v 0 0 q -1.15,0 -4.16,2.62 v 0 0 q -1.98,1.86 -5.85,7.01 v 0 0 q -3.88,5.15 -4.39,5.47 v 0 0 q -2.3,1.15 -2.88,1.15 v 0 0 q -0.57,0 -0.57,-0.19 v 0 0 q 0,-0.19 0.19,-0.57 v 0 0 q 0.19,-0.39 3.9,-11.14 v 0 0 q -1.41,2.18 -2.56,3.33 v 0 0 q -0.51,0.57 -0.51,-0.23 v 0 0 q 0,-0.8 0.45,-1.37 v 0 0 q 2.88,-3.78 4.22,-6.4 v 0 0 q 0.39,-2.24 1.54,-2.63 v 0 0 q 0.7,-0.25 1.63,0 v 0 0 q 0.93,0.26 0.93,0.9 z m 43.77,-1.98 v 0 0 q 3.46,0 3.46,3.32 v 0 0 q 0,1.73 -0.96,2.82 v 0 0 q -1.6,2.37 -5.18,4.13 v 0 0 q -3.59,1.76 -6.08,1.95 v 0 0 q -0.9,0.06 -0.96,-0.51 v 0 0 q -0.07,-0.26 0.16,-0.32 v 0 0 q 0.22,-0.07 0.35,-0.07 v 0 0 q 1.47,-0.12 3.77,-1.4 v 0 0 q 4.29,-2.31 6.28,-4.74 v 0 0 q 0.83,-1.15 0.83,-2.21 v 0 0 q 0,-1.05 -1.03,-1.05 v 0 0 q -0.83,0 -2.24,0.7 v 0 0 q -3,1.41 -6.33,4.9 v 0 0 q -3.33,3.48 -4.35,6.81 v 0 0 q -0.32,1.03 -0.32,2.02 v 0 0 q 0,0.99 0.83,1.89 v 0 0 q 0.83,0.89 2.56,0.89 v 0 0 q 1.92,0 4.41,-1.02 v 0 0 q 7.24,-2.95 11.14,-8.9 v 0 0 q 0.38,-0.51 0.7,-0.19 v 0 0 q 0.26,0.13 0.26,0.32 v 0 0 q 0,0.19 -0.19,0.45 v 0 0 q -1.92,3.2 -4.87,5.69 v 0 0 q -5.69,4.87 -11.07,4.87 v 0 0 q -4.61,0 -6.46,-2.75 v 0 0 q -0.71,-1.09 -0.71,-2.63 v 0 0 q 0,-1.53 0.84,-3.65 v 0 0 q 1.6,-3.64 6.84,-7.48 v 0 0 q 5.25,-3.84 8.32,-3.84 z m 15.04,0.76 0.84,-0.06 v 0 q 4.92,-0.45 5.98,-0.45 v 0 0 q 1.06,0 1.06,0.32 v 0 0 q 0,0.39 -1.51,0.8 v 0 0 q -1.5,0.42 -7.33,1.06 v 0 0 q -0.32,0.57 -0.76,1.34 v 0 0 q -0.96,1.54 -1.03,1.86 v 0 0 q -3.65,7.29 -3.84,9.28 v 0 0 q -0.06,0.57 -0.06,1.47 v 0 0 q 0,0.9 0.51,1.47 v 0 0 q 0.9,1.03 2.56,0.13 v 0 0 q 1.66,-0.9 4.64,-3.58 v 0 0 q 2.98,-2.69 4.83,-5.25 v 0 0 q 0.26,-0.32 0.64,-0.13 v 0 0 q 0.96,0.45 -3.33,5.06 v 0 0 q -4.09,4.41 -6.84,5.44 v 0 0 q -1.6,0.57 -2.69,0.57 v 0 0 q -2.56,0 -3.39,-2.43 v 0 0 q -0.13,-0.45 -0.13,-1.09 v 0 0 q 0,-2.24 2.05,-6.78 v 0 0 q -0.32,0.7 -2.5,3.2 v 0 0 q -0.58,0.64 -0.9,0 v 0 0 q -0.06,-0.13 -0.06,-0.35 v 0 0 q 0,-0.23 0.26,-0.55 v 0 0 q 3.13,-3.9 4.92,-6.59 v 0 0 q 0,-0.06 1.41,-2.69 v 0 0 q -0.64,0.13 -1.31,0.13 v 0 0 q -0.67,0 -0.99,-0.42 v 0 0 q -0.32,-0.41 -0.07,-0.99 v 0 0 q 0.45,-1.02 3.4,-1.15 v 0 0 q 0.06,-0.13 0.25,-0.13 v 0 l 3.2,-5.95 v 0 q 0.26,-0.51 0.58,-1.06 v 0 0 q 0.32,-0.54 0.48,-0.83 v 0 0 q 0.16,-0.29 0.35,-0.61 v 0 0 q 0.19,-0.32 0.32,-0.44 v 0 0 q 0.13,-0.13 0.26,-0.26 v 0 0 q 0.25,-0.38 1.5,-0.38 v 0 0 q 1.25,0 1.7,0.7 v 0 0 q 0.19,0.26 0.19,0.86 v 0 0 q 0,0.61 -0.45,1.35 v 0 0 q -0.45,0.73 -0.96,1.05 v 0 0 q -0.51,0.32 -0.7,0.71 v 0 z m 18.31,10.82 v 0 0 q 1.15,-2.37 1.15,-3.65 v 0 0 q 0,-1.28 -0.29,-2.01 v 0 0 q -0.29,-0.74 0.26,-1.25 v 0 0 q 0.54,-0.51 1.37,-0.39 v 0 0 q 1.28,0.32 1.28,2.88 v 0 0 q 0,2.56 -3,6.72 v 0 0 q 0.06,1.73 1.79,1.73 v 0 0 q 1.73,0 5.25,-3.71 v 0 0 q 1.66,-1.92 2.08,-2.5 v 0 0 q 0.41,-0.57 0.73,-0.41 v 0 0 q 0.32,0.16 0.32,0.29 v 0 0 q 0,0.64 -2.3,3.32 v 0 0 q -3.65,4.48 -6.47,4.48 v 0 0 q -1.85,0 -2.62,-1.6 v 0 0 q -1.28,1.35 -2.5,2.5 v 0 0 q -2.49,2.11 -5.56,2.11 v 0 0 q -1.73,0 -2.88,-0.83 v 0 0 q -2.24,-1.34 -2.24,-4.8 v 0 0 q 0,-3.78 2.56,-7.68 v 0 0 q 1.47,-2.3 3.45,-4.03 v 0 0 q 3.14,-2.75 5.95,-2.75 v 0 0 q 0.71,0 1.35,0.19 v 0 0 q 1.92,0.64 1.92,2.43 v 0 0 q 0,1.47 -0.77,1.47 v 0 0 q -0.32,-0.13 -0.32,-0.96 v 0 0 q 0,-1.15 -1.28,-1.15 v 0 0 q -2.24,0 -5.76,4.1 v 0 0 q -3.52,4.09 -4.22,8.25 v 0 0 q -0.13,0.71 -0.13,1.57 v 0 0 q 0,0.86 0.57,1.98 v 0 0 q 0.58,1.12 2.15,1.12 v 0 0 q 1.57,0 3.42,-1.4 v 0 0 q 1.86,-1.41 3.33,-3.59 v 0 l -0.19,-0.38 v 0 q -0.26,-1.03 0.25,-1.67 v 0 0 q 0.52,-0.64 1.35,-0.38 z m 31.42,-25.6 v 0 0 q 0.77,-1.41 0.77,-2.18 v 0 0 q 0,-1.34 -1.09,-1.34 v 0 0 q -0.89,0 -2.24,1.02 v 0 0 q -5.12,3.97 -9.92,12.55 v 0 0 q -3.84,6.91 -5.63,11.84 v 0 0 q 4.42,-3.01 9.89,-9.79 v 0 0 q 5.47,-6.79 8.22,-12.1 z m -19.07,24.45 v 0 0 q -0.77,2.17 -0.83,2.91 v 0 0 q -0.07,0.74 -0.07,1.98 v 0 0 q 0,1.25 0.64,2.28 v 0 0 q 1.09,1.72 3.65,0.25 v 0 0 q 1.92,-1.02 4.87,-3.74 v 0 0 q 2.94,-2.72 4.54,-4.96 v 0 0 q 0.13,-0.19 0.38,-0.19 v 0 0 q 0.58,0 0.32,0.83 v 0 0 q -0.96,1.73 -3.55,4.41 v 0 0 q -2.59,2.69 -4.7,4.26 v 0 0 q -2.11,1.57 -4.23,1.57 v 0 0 q -4.86,0 -4.86,-4.74 v 0 0 q 0,-0.19 0,-0.38 v 0 0 q 0.26,-4.48 4.54,-13.54 v 0 0 q 4.29,-9.05 7.75,-13.66 v 0 l 1.98,-2.5 v 0 q 0.71,-0.83 2.05,-2.05 v 0 0 q 2.56,-2.43 5.28,-2.43 v 0 0 q 2.72,0 3.68,1.67 v 0 0 q 0.32,0.57 0.32,1.66 v 0 0 q 0,1.09 -0.96,3.07 v 0 0 q -6.59,11.46 -20.8,23.3 z m 25.15,1.15 v 0 0 q 1.15,-2.37 1.15,-3.65 v 0 0 q 0,-1.28 -0.28,-2.01 v 0 0 q -0.29,-0.74 0.25,-1.25 v 0 0 q 0.55,-0.51 1.38,-0.39 v 0 0 q 1.28,0.32 1.28,2.88 v 0 0 q 0,2.56 -3.01,6.72 v 0 0 q 0.06,1.73 1.79,1.73 v 0 0 q 1.73,0 5.25,-3.71 v 0 0 q 1.66,-1.92 2.08,-2.5 v 0 0 q 0.42,-0.57 0.74,-0.41 v 0 0 q 0.32,0.16 0.32,0.29 v 0 0 q 0,0.64 -2.31,3.32 v 0 0 q -3.65,4.48 -6.46,4.48 v 0 0 q -1.86,0 -2.63,-1.6 v 0 0 q -1.28,1.35 -2.49,2.5 v 0 0 q -2.5,2.11 -5.57,2.11 v 0 0 q -1.73,0 -2.88,-0.83 v 0 0 q -2.24,-1.34 -2.24,-4.8 v 0 0 q 0,-3.78 2.56,-7.68 v 0 0 q 1.47,-2.3 3.46,-4.03 v 0 0 q 3.13,-2.75 5.95,-2.75 v 0 0 q 0.7,0 1.34,0.19 v 0 0 q 1.92,0.64 1.92,2.43 v 0 0 q 0,1.47 -0.77,1.47 v 0 0 q -0.32,-0.13 -0.32,-0.96 v 0 0 q 0,-1.15 -1.28,-1.15 v 0 0 q -2.24,0 -5.76,4.1 v 0 0 q -3.52,4.09 -4.22,8.25 v 0 0 q -0.13,0.71 -0.13,1.57 v 0 0 q 0,0.86 0.58,1.98 v 0 0 q 0.57,1.12 2.14,1.12 v 0 0 q 1.57,0 3.43,-1.4 v 0 0 q 1.85,-1.41 3.32,-3.59 v 0 l -0.19,-0.38 v 0 q -0.25,-1.03 0.26,-1.67 v 0 0 q 0.51,-0.64 1.34,-0.38 z m 7.49,31.42 v 0 0 q -0.51,0 -1.28,-0.19 v 0 0 q -3.26,-0.83 -3.26,-3.42 v 0 0 q 0,-2.59 3.36,-6.5 v 0 0 q 3.36,-3.9 14.17,-11.07 v 0 0 q 4.61,-9.41 6.4,-14.91 v 0 0 q -3.58,4.35 -5.12,6.01 v 0 0 q -5.76,6.4 -9.28,6.4 v 0 0 q -1.02,0 -2.21,-0.6 v 0 0 q -1.18,-0.61 -2.01,-1.73 v 0 0 q -0.83,-1.12 -0.83,-2.4 v 0 0 q 0,-3.39 4.73,-7.62 v 0 0 q 2.82,-2.56 5.89,-4.35 v 0 0 q 3.07,-1.79 4.86,-2.24 v 0 0 q 1.8,-0.45 3.46,-0.45 v 0 0 q 1.66,0 2.94,0.9 v 0 0 q 1.28,0.89 1.28,1.79 v 0 0 q 0,0.51 -0.51,0.32 v 0 0 q -0.7,-1.22 -3.1,-1.22 v 0 0 q -2.4,0 -5.44,1.57 v 0 0 q -3.04,1.57 -5.47,3.71 v 0 0 q -2.44,2.15 -4.13,4.87 v 0 0 q -1.7,2.72 -1.7,4 v 0 0 q 0,2.24 1.28,2.24 v 0 0 q 1.79,0 5.51,-2.95 v 0 0 q 5.5,-4.28 10.56,-10.43 v 0 0 q 0.83,-1.21 3.45,0.07 v 0 0 q 1.03,0.51 0.83,0.89 v 0 0 q -0.83,1.86 -3.04,6.43 v 0 0 q -2.2,4.58 -3.29,6.88 v 0 0 q 1.47,-0.76 5.02,-3.87 v 0 0 q 3.55,-3.1 6.24,-6.24 v 0 0 q 1.41,-1.66 1.41,-0.51 v 0 0 q 0,1.6 -7.68,8.45 v 0 0 q -4.42,3.97 -6.27,4.99 v 0 0 q -5.44,11.2 -7.3,14.08 v 0 0 q -4.8,7.1 -9.47,7.1 z m 11.78,-18.75 v 0 0 q -7.68,5.76 -11.01,9.12 v 0 0 q -3.33,3.36 -3.33,6.31 v 0 0 q 0,0.89 0.58,1.28 v 0 0 q 0.57,0.38 1.21,0.38 v 0 0 q 0.64,0 1.86,-0.96 v 0 0 q 1.21,-0.96 2.08,-1.89 v 0 0 q 0.86,-0.93 1.5,-1.73 v 0 0 q 0.64,-0.8 1.44,-2.04 v 0 0 q 0.8,-1.25 1.25,-1.96 v 0 0 q 0.45,-0.7 1.25,-2.2 v 0 0 q 0.8,-1.51 1.09,-2.05 v 0 0 q 0.28,-0.55 1.08,-2.21 v 0 0 q 0.8,-1.66 1,-2.05 z m 22.72,-23.36 v 0 0 q 1.6,0 1.92,1.03 v 0 0 q 0.12,0.57 -0.16,1.12 v 0 0 q -0.29,0.54 -0.42,0.86 v 0 0 q -0.13,0.32 -0.19,0.51 v 0 0 q -0.32,0.64 -0.64,1.22 v 0 0 q -3.65,7.29 -3.84,9.28 v 0 0 q -0.07,0.57 -0.07,1.47 v 0 0 q 0,0.9 0.52,1.47 v 0 0 q 0.89,1.03 2.56,0.13 v 0 0 q 1.66,-0.9 4.64,-3.58 v 0 0 q 2.97,-2.69 4.83,-5.25 v 0 0 q 0.25,-0.32 0.57,-0.16 v 0 0 q 0.32,0.16 0.32,0.32 v 0 0 q 0,0.16 -0.12,0.35 v 0 0 q -0.96,1.73 -3.46,4.42 v 0 0 q -4.1,4.41 -6.85,5.44 v 0 0 q -1.6,0.57 -2.69,0.57 v 0 0 q -2.56,0 -3.39,-2.43 v 0 0 q -0.13,-0.45 -0.13,-1.09 v 0 0 q 0,-2.24 2.05,-6.78 v 0 0 q -0.32,0.7 -2.49,3.2 v 0 0 q -0.58,0.64 -0.9,0 v 0 0 q -0.06,-0.13 -0.06,-0.35 v 0 0 q 0,-0.23 0.25,-0.55 v 0 0 q 3.14,-3.9 4.93,-6.59 v 0 0 q -0.13,-0.32 0.13,-0.83 v 0 0 q 1.28,-3.59 2.24,-3.78 v 0 0 q 0.19,0 0.45,0 z m 5.05,-8.51 v 0 l -0.51,2.05 v 0 q 0,0.57 -0.83,1.85 v 0 0 q -0.83,1.28 -1.28,1.28 v 0 0 q -2.75,0 -2.75,-1.34 v 0 0 q 0,-0.26 2.75,-2.37 v 0 l 1.09,-0.83 v 0 q 1.02,-0.9 1.28,-0.9 v 0 0 q 0.25,0 0.25,0.26 z m 6.47,26.94 v 0 0 q -1.03,0 -2.21,-0.6 v 0 0 q -1.19,-0.61 -2.02,-1.73 v 0 0 q -0.83,-1.12 -0.83,-2.4 v 0 0 q 0,-1.28 0.58,-2.43 v 0 0 q 1.28,-2.69 4.12,-5.22 v 0 0 q 2.85,-2.53 5.92,-4.32 v 0 0 q 3.08,-1.79 4.87,-2.24 v 0 0 q 1.79,-0.45 3.49,-0.45 v 0 0 q 1.69,0 2.91,0.87 v 0 0 q 1.21,0.86 1.21,1.82 v 0 0 q 0,0.32 -0.06,0.38 v 0 0 q -0.06,0.07 -0.32,-0.06 v 0 0 q -0.77,-1.22 -3.17,-1.22 v 0 0 q -2.4,0 -5.44,1.57 v 0 0 q -3.04,1.57 -5.73,3.94 v 0 0 q -2.24,2.11 -3.93,4.77 v 0 0 q -1.7,2.65 -1.7,3.87 v 0 0 q 0,2.37 1.35,2.37 v 0 0 q 1.34,0 4.09,-2.18 v 0 0 q 4.55,-3.84 6.21,-5.63 v 0 0 q 5.89,-6.34 6.34,-6.34 v 0 0 q 0.76,0 1.85,0.45 v 0 0 q 1.09,0.45 0.71,1.09 v 0 0 q -3.27,4.61 -3.84,9.28 v 0 0 q -0.07,0.57 -0.07,1.47 v 0 0 q 0,0.9 0.51,1.47 v 0 0 q 0.96,1.03 2.63,0.13 v 0 0 q 1.66,-0.9 4.64,-3.58 v 0 0 q 2.97,-2.69 4.77,-5.25 v 0 0 q 0.25,-0.32 0.57,-0.16 v 0 0 q 0.32,0.16 0.32,0.29 v 0 0 q 0,0.96 -3.04,4.19 v 0 0 q -3.04,3.23 -4.64,4.38 v 0 0 q -3.01,2.24 -5.57,2.24 v 0 0 q -2.43,0 -3.26,-2.43 v 0 0 q -0.19,-0.77 -0.19,-1.73 v 0 0 q 0,-2.88 1.21,-6.08 v 0 0 q -0.25,0.13 -2.36,2.56 v 0 0 q -2.12,2.43 -4.9,4.67 v 0 0 q -2.78,2.24 -5.02,2.24 z m 82.11,0.9 v 0 0 q -1.99,0 -2.88,-1.76 v 0 0 q -0.9,-1.76 -0.9,-4.48 v 0 0 q 0,-2.72 1.15,-7.46 v 0 0 q -2.24,-0.19 -7.61,-0.89 v 0 0 q -8.9,11.01 -14.79,15.29 v 0 0 q -5.05,3.78 -10.49,3.78 v 0 0 q -3.46,0 -5.92,-1.73 v 0 0 q -2.47,-1.73 -2.47,-5.12 v 0 0 q 0,-0.64 0.32,-1.18 v 0 0 q 0.32,-0.55 0.64,-0.29 v 0 0 q 0.32,0.26 0.32,1.47 v 0 0 q 0,2.18 1.7,3.27 v 0 0 q 1.7,1.08 4.13,1.08 v 0 0 q 5.25,0 10.33,-3.42 v 0 0 q 5.09,-3.42 13.86,-13.41 v 0 0 q -9.41,-1.15 -12.42,-1.15 v 0 0 q -8.12,0 -10.04,5.31 v 0 0 q -0.26,0.71 -0.26,1.31 v 0 0 q 0,0.61 0.26,1.09 v 0 0 q 0.25,0.48 0.09,0.77 v 0 0 q -0.16,0.29 -0.54,0.26 v 0 0 q -0.39,-0.04 -0.64,-0.42 v 0 0 q -0.71,-1.22 -0.71,-2.37 v 0 0 q 0,-3.97 1.44,-5.85 v 0 0 q 1.44,-1.89 3.36,-2.4 v 0 0 q 2.31,-0.64 5.38,-0.64 v 0 0 q 3.07,0 15.49,2.43 v 0 0 q 3.45,-3.97 10.49,-12.77 v 0 0 q 7.04,-8.8 7.04,-8.93 v 0 h 0.07 v 0 q 0.06,-0.06 0.32,-0.19 v 0 0 q 1.53,-0.9 3.33,-0.9 v 0 0 q 0.64,0 0.64,0.64 v 0 0 q 0,0.07 -0.07,0.16 v 0 0 q -0.06,0.1 -0.13,0.26 v 0 0 q -0.06,0.16 -0.12,0.29 v 0 0 q -6.15,10.17 -9.54,22.91 v 0 l -0.19,0.45 1.6,0.06 v 0 q 0.51,0.07 1.82,0.07 v 0 0 q 1.31,0 2.79,-0.61 v 0 0 q 1.47,-0.61 1.88,-1.31 v 0 0 q 0.42,-0.71 0.74,-0.32 v 0 0 q 0.32,0.38 0.06,0.83 v 0 0 q -0.7,1.28 -2.49,1.85 v 0 0 q -1.54,0.64 -3.04,0.64 v 0 0 q -1.51,0 -1.95,0 v 0 l -1.73,-0.06 v 0 q -1.22,5.57 -1.22,8.86 v 0 0 q 0,3.3 1.79,3.3 v 0 0 q 1.73,0 5.38,-2.75 v 0 0 q 3.65,-2.75 6.85,-7.11 v 0 0 q 0.19,-0.25 0.51,-0.12 v 0 0 q 0.32,0.12 0.32,0.32 v 0 0 q 0,0.19 -0.1,0.48 v 0 0 q -0.09,0.28 -0.99,1.44 v 0 0 q -2.69,3.58 -6.59,6.78 v 0 0 q -2.82,2.24 -6.27,2.24 z m 3.52,-32.19 v 0 0 q 0.06,-0.13 0.16,-0.35 v 0 0 q 0.09,-0.23 0.16,-0.36 v 0 0 q -8,10.95 -12.87,16.9 v 0 l 6.72,1.09 v 0 q 1.8,-6.98 5.83,-17.28 z m 30.97,-2.05 v 0 0 q 0.77,-1.41 0.77,-2.18 v 0 0 q 0,-1.34 -1.09,-1.34 v 0 0 q -0.89,0 -2.24,1.02 v 0 0 q -5.12,3.97 -9.92,12.55 v 0 0 q -3.84,6.91 -5.63,11.84 v 0 0 q 4.42,-3.01 9.89,-9.79 v 0 0 q 5.47,-6.79 8.22,-12.1 z m -19.07,24.45 v 0 0 q -0.77,2.17 -0.83,2.91 v 0 0 q -0.06,0.74 -0.06,1.98 v 0 0 q 0,1.25 0.64,2.28 v 0 0 q 1.08,1.72 3.64,0.25 v 0 0 q 1.92,-1.02 4.87,-3.74 v 0 0 q 2.94,-2.72 4.54,-4.96 v 0 0 q 0.13,-0.19 0.39,-0.19 v 0 0 q 0.57,0 0.32,0.83 v 0 0 q -0.96,1.73 -3.56,4.41 v 0 0 q -2.59,2.69 -4.7,4.26 v 0 0 q -2.11,1.57 -4.22,1.57 v 0 0 q -4.87,0 -4.87,-4.74 v 0 0 q 0,-0.19 0,-0.38 v 0 0 q 0.26,-4.48 4.55,-13.54 v 0 0 q 4.28,-9.05 7.74,-13.66 v 0 l 1.98,-2.5 v 0 q 0.71,-0.83 2.05,-2.05 v 0 0 q 2.56,-2.43 5.28,-2.43 v 0 0 q 2.72,0 3.68,1.67 v 0 0 q 0.32,0.57 0.32,1.66 v 0 0 q 0,1.09 -0.96,3.07 v 0 0 q -6.59,11.46 -20.8,23.3 z m 26.69,-10.43 v 0 0 q 3.46,0 3.46,3.32 v 0 0 q 0,1.73 -0.96,2.82 v 0 0 q -1.6,2.37 -5.19,4.13 v 0 0 q -3.58,1.76 -6.08,1.95 v 0 0 q -0.89,0.06 -0.96,-0.51 v 0 0 q -0.06,-0.26 0.16,-0.32 v 0 0 q 0.23,-0.07 0.35,-0.07 v 0 0 q 1.48,-0.12 3.78,-1.4 v 0 0 q 4.29,-2.31 6.27,-4.74 v 0 0 q 0.83,-1.15 0.83,-2.21 v 0 0 q 0,-1.05 -1.02,-1.05 v 0 0 q -0.83,0 -2.24,0.7 v 0 0 q -3.01,1.41 -6.34,4.9 v 0 0 q -3.32,3.48 -4.35,6.81 v 0 0 q -0.32,1.03 -0.32,2.02 v 0 0 q 0,0.99 0.83,1.89 v 0 0 q 0.84,0.89 2.56,0.89 v 0 0 q 1.92,0 4.42,-1.02 v 0 0 q 7.23,-2.95 11.14,-8.9 v 0 0 q 0.38,-0.51 0.7,-0.19 v 0 0 q 0.26,0.13 0.26,0.32 v 0 0 q 0,0.19 -0.2,0.45 v 0 0 q -1.92,3.2 -4.86,5.69 v 0 0 q -5.7,4.87 -11.07,4.87 v 0 0 q -4.61,0 -6.47,-2.75 v 0 0 q -0.7,-1.09 -0.7,-2.63 v 0 0 q 0,-1.53 0.83,-3.65 v 0 0 q 1.6,-3.64 6.85,-7.48 v 0 0 q 5.25,-3.84 8.32,-3.84 z m 8.58,19.13 v 0 0 q -2.31,1.15 -2.95,1.15 v 0 0 q -0.64,0 -0.64,-0.19 v 0 0 q 0,-0.19 0.1,-0.41 v 0 0 q 0.09,-0.23 0.89,-2.4 v 0 0 q 0.8,-2.18 2.02,-5.51 v 0 0 q 1.22,-3.33 2.11,-5.57 v 0 0 q -1.47,1.6 -3.45,4.42 v 0 0 q -0.32,0.45 -0.87,0.26 v 0 0 q -0.54,-0.2 0.35,-1.35 v 0 0 q 2.12,-2.56 5.32,-7.36 v 0 0 q -0.96,-0.51 -0.96,-0.99 v 0 0 q 0,-0.48 0.12,-0.74 v 0 0 q 0.32,-0.76 1.16,-0.32 v 0 0 q 0.38,0.13 0.51,0.13 v 0 0 q 2.81,-7.42 7.04,-13.25 v 0 0 q 2.3,-3.26 4.8,-4.76 v 0 0 q 2.49,-1.51 4.67,-1.51 v 0 0 q 1.54,0 2.94,0.74 v 0 0 q 1.41,0.73 1.41,2.4 v 0 0 q 0,3.2 -5.5,9.28 v 0 0 q -2.95,3.13 -6.59,5.76 v 0 0 q -3.65,2.62 -6.47,3.84 v 0 0 q -2.49,5.5 -4.41,11.52 v 0 l 4.16,-5.44 v 0 q -0.07,-0.58 -0.07,-1.22 v 0 0 q 0,-1.92 0.83,-2.37 v 0 0 q 0.45,-0.19 0.58,0.77 v 0 l 0.26,0.9 v 0 q 4.92,-5.76 7.1,-6.79 v 0 0 q 1.02,-0.51 1.86,-0.51 v 0 0 q 0.83,0 1.47,0.45 v 0 0 q 0.64,0.45 0.64,0.96 v 0 0 q 0,0.9 -1.47,1.6 v 0 0 q -7.04,3.39 -9.28,5.76 v 0 0 q 1.53,5.38 3,8.45 v 0 0 q 1.48,3.07 4.64,6.91 v 0 0 q 3.17,3.84 5.8,3.84 v 0 0 q 2.17,0 1.79,-1.92 v 0 0 q -0.26,-1.73 -1.06,-2.98 v 0 0 q -0.8,-1.24 -0.16,-1.24 v 0 0 q 0.58,0.06 1.22,0.57 v 0 0 q 0.38,0.45 0.89,1.57 v 0 0 q 0.52,1.12 0.52,1.89 v 0 0 q -0.07,1.79 -1.73,2.81 v 0 0 q -1.67,1.03 -3.2,1.03 v 0 0 q -3.01,0 -5.89,-2.98 v 0 0 q -2.88,-2.97 -4.8,-7.2 v 0 0 q -1.92,-4.22 -2.69,-8.64 v 0 0 q -1.15,1.6 -2.56,3.84 v 0 0 q -2.88,4.42 -3.45,4.8 z m 20.92,-31.61 v 0 0 q 1.73,-2.88 1.73,-4.04 v 0 0 q 0,-1.15 -0.96,-1.15 v 0 0 q -0.96,0 -2.43,1.15 v 0 0 q -4.1,3.14 -6.91,7.14 v 0 0 q -2.82,4 -5.57,9.95 v 0 0 q 5.95,-2.75 10.82,-8.32 v 0 0 q 1.6,-1.85 3.32,-4.73 z m -1.21,31.74 v 0 0 q -0.83,0.96 -0.35,1.54 v 0 0 q 0.48,0.57 1.08,0.57 v 0 0 q 0.61,0 1.25,-0.19 v 0 0 q 2.75,-0.83 5.35,-3.3 v 0 0 q 2.59,-2.46 2.59,-5.02 v 0 0 q 0,-1.41 -3.14,-3.07 v 0 0 q -1.47,-0.77 -1.66,-0.9 v 0 0 q -1.73,-1.15 -2.18,-2.3 v 0 0 q -0.89,1.53 -2.88,4.41 v 0 0 q -0.45,0.52 -0.83,0.23 v 0 0 q -0.38,-0.29 -0.06,-0.8 v 0 0 q 2.62,-3.59 3.45,-6.02 v 0 0 q 0.45,-3.52 5.12,-6.33 v 0 0 q 4.67,-2.82 8.51,-2.82 v 0 0 q 2.44,0 3.43,0.86 v 0 0 q 0.99,0.87 0.99,1.7 v 0 0 q 0,0.83 -0.48,1.92 v 0 0 q -0.48,1.09 -1.95,2.05 v 0 0 q -0.39,0.25 -0.64,-0.13 v 0 0 q -0.13,-0.38 0.54,-1.06 v 0 0 q 0.67,-0.67 0.87,-1.82 v 0 0 q 0.19,-1.15 -1.03,-1.41 v 0 0 q -0.19,0 -0.38,0 v 0 0 q -2.5,0 -6.24,1.86 v 0 0 q -3.75,1.85 -5.86,4.8 v 0 0 q -0.83,1.09 -0.83,2.21 v 0 0 q 0,1.12 1.54,2.01 v 0 0 q 0.64,0.39 2.17,1.22 v 0 0 q 1.54,0.83 2.18,1.21 v 0 0 q 0.64,0.39 1.53,1.22 v 0 0 q 0.9,0.83 0.96,1.54 v 0 0 q 0.32,1.92 -1.79,4.22 v 0 0 q -3.01,3.33 -8.96,4.67 v 0 0 q -1.34,0.32 -2.72,0.32 v 0 0 q -1.37,0 -1.89,-1.02 v 0 0 q -0.19,-0.26 -0.19,-0.8 v 0 0 q 0,-0.55 1.03,-1.76 v 0 0 q 0.96,-0.96 3.07,-1.86 v 0 0 q 0.19,-0.06 0.32,0.07 v 0 0 q 0.13,0.12 0.06,0.32 v 0 0 q -0.06,0.19 -0.67,0.44 v 0 0 q -0.61,0.26 -1.31,1.22 z m 21.5,0.06 v 0 0 q -1.02,0 -2.21,-0.6 v 0 0 q -1.18,-0.61 -2.01,-1.73 v 0 0 q -0.83,-1.12 -0.83,-2.4 v 0 0 q 0,-1.28 0.57,-2.43 v 0 0 q 1.28,-2.69 4.13,-5.22 v 0 0 q 2.85,-2.53 5.92,-4.32 v 0 0 q 3.07,-1.79 4.86,-2.24 v 0 0 q 1.8,-0.45 3.49,-0.45 v 0 0 q 1.7,0 2.91,0.87 v 0 0 q 1.22,0.86 1.22,1.82 v 0 0 q 0,0.32 -0.06,0.38 v 0 0 q -0.07,0.07 -0.32,-0.06 v 0 0 q -0.77,-1.22 -3.17,-1.22 v 0 0 q -2.4,0 -5.44,1.57 v 0 0 q -3.04,1.57 -5.73,3.94 v 0 0 q -2.24,2.11 -3.94,4.77 v 0 0 q -1.69,2.65 -1.69,3.87 v 0 0 q 0,2.37 1.34,2.37 v 0 0 q 1.35,0 4.1,-2.18 v 0 0 q 4.54,-3.84 6.21,-5.63 v 0 0 q 5.88,-6.34 6.33,-6.34 v 0 0 q 0.77,0 1.86,0.45 v 0 0 q 1.09,0.45 0.7,1.09 v 0 0 q -3.26,4.61 -3.84,9.28 v 0 0 q -0.06,0.57 -0.06,1.47 v 0 0 q 0,0.9 0.51,1.47 v 0 0 q 0.96,1.03 2.62,0.13 v 0 0 q 1.67,-0.9 4.64,-3.58 v 0 0 q 2.98,-2.69 4.77,-5.25 v 0 0 q 0.26,-0.32 0.58,-0.16 v 0 0 q 0.32,0.16 0.32,0.29 v 0 0 q 0,0.96 -3.04,4.19 v 0 0 q -3.04,3.23 -4.64,4.38 v 0 0 q -3.01,2.24 -5.57,2.24 v 0 0 q -2.43,0 -3.26,-2.43 v 0 0 q -0.2,-0.77 -0.2,-1.73 v 0 0 q 0,-2.88 1.22,-6.08 v 0 0 q -0.26,0.13 -2.37,2.56 v 0 0 q -2.11,2.43 -4.89,4.67 v 0 0 q -2.79,2.24 -5.03,2.24 z m 43.84,-18.88 v 0 0 q 1.47,0 1.47,1.57 v 0 0 q 0,1.57 -1.47,4.32 v 0 0 q -1.47,2.75 -2.17,4.48 v 0 0 q -1.22,2.95 -1.22,4.71 v 0 0 q 0,1.76 0.51,2.33 v 0 0 q 0.96,1.03 2.63,0.1 v 0 0 q 1.66,-0.93 4.64,-3.59 v 0 0 q 2.97,-2.65 4.76,-5.21 v 0 0 q 0.26,-0.32 0.61,-0.16 v 0 0 q 0.35,0.16 0.35,0.32 v 0 0 q 0,0.16 -0.12,0.35 v 0 0 q -0.96,1.73 -3.46,4.42 v 0 0 q -2.5,2.68 -4.8,4.32 v 0 0 q -2.3,1.63 -4.54,1.63 v 0 0 q -2.18,-0.07 -3.08,-0.99 v 0 0 q -0.89,-0.93 -0.89,-2.34 v 0 0 q 0,-1.41 0.25,-2.72 v 0 0 q 0.26,-1.31 0.96,-3.04 v 0 0 q 1.16,-2.75 2.02,-4.29 v 0 0 q 0.86,-1.53 0.86,-2.01 v 0 0 q 0,-0.48 -0.51,-0.48 v 0 0 q -1.02,0 -3.9,2.49 v 0 0 q -1.99,1.86 -5.86,7.01 v 0 0 q -3.87,5.15 -4.38,5.47 v 0 0 q -2.31,1.15 -2.88,1.15 v 0 0 q -0.58,0 -0.58,-0.19 v 0 0 q 0,-0.19 0.13,-0.54 v 0 0 q 0.13,-0.35 1.25,-3.49 v 0 0 q 1.12,-3.14 2.43,-6.88 v 0 0 q 1.31,-3.74 1.6,-4.51 v 0 0 q 0.29,-0.77 0.38,-1.31 v 0 0 q 0.1,-0.55 0.23,-0.93 v 0 0 q 0.13,-0.39 0.48,-0.87 v 0 0 q 0.35,-0.48 0.93,-0.51 v 0 0 q 0.57,-0.03 1.47,0.13 v 0 0 q 0.89,0.16 0.89,0.8 v 0 0 q 0,0.45 -0.7,1.95 v 0 0 q -0.7,1.51 -4.03,10.34 v 0 0 q 2.3,-2.82 5.82,-6.5 v 0 0 q 3.52,-3.68 5.95,-5.6 v 0 0 q 2.44,-1.73 3.97,-1.73 z m 11.23,6.5 v 0 0 q 2.85,-2.53 5.92,-4.32 v 0 0 q 3.08,-1.79 4.87,-2.24 v 0 0 q 1.79,-0.45 3.52,-0.45 v 0 0 q 1.73,0 3.26,1.15 v 0 0 q 8.77,-20.35 16.77,-20.35 v 0 0 q 2.69,0 3.65,1.54 v 0 0 q 0.45,0.77 0.45,1.34 v 0 0 q 0,1.6 -1.38,4.07 v 0 0 q -1.38,2.46 -4.26,5.4 v 0 0 q -2.88,2.95 -8.25,7.27 v 0 0 q -5.38,4.32 -5.95,4.83 v 0 0 q -2.05,4.74 -3.2,9.15 v 0 0 q -1.16,4.42 -1.16,6.59 v 0 0 q 0,2.18 0.77,3.46 v 0 0 q 0.39,0.83 1.15,0.99 v 0 0 q 0.77,0.16 1.32,-0.19 v 0 0 q 0.54,-0.35 0.83,-0.61 v 0 0 q 0.29,-0.25 0.7,-0.48 v 0 0 q 0.42,-0.22 0.61,-0.09 v 0 0 q 0.19,0.12 -0.06,0.7 v 0 0 q -0.52,0.64 -0.96,1.09 v 0 0 q -1.03,0.7 -2.4,0.7 v 0 0 q -1.38,0 -1.83,-0.06 v 0 0 q -3.07,-0.51 -3.07,-4.48 v 0 0 q 0,-3.84 1.02,-7.11 v 0 0 q 1.41,-4.48 2.56,-7.42 v 0 0 q -10.24,11.9 -14.52,11.9 v 0 0 q -1.03,0 -2.21,-0.6 v 0 0 q -1.19,-0.61 -2.02,-1.73 v 0 0 q -0.83,-1.12 -0.83,-2.4 v 0 0 q 0,-1.28 0.58,-2.43 v 0 0 q 1.28,-2.69 4.12,-5.22 z m 16.16,-2.66 0.9,-2.17 v 0 q -0.77,-0.39 -2.69,-0.39 v 0 0 q -1.92,0 -4.96,1.57 v 0 0 q -3.04,1.57 -5.73,3.94 v 0 0 q -2.24,2.11 -3.93,4.77 v 0 0 q -1.7,2.65 -1.7,3.87 v 0 0 q 0,2.37 1.35,2.37 v 0 0 q 1.34,0 4.09,-2.18 v 0 0 q 7.11,-5.82 12.67,-11.78 z m 19.65,-18.3 v 0 0 q 0.83,-1.54 0.83,-2.59 v 0 0 q 0,-1.06 -0.92,-1.06 v 0 0 q -0.93,0 -2.47,1.15 v 0 0 q -7.04,5.38 -12.73,17.99 v 0 0 q 4.16,-2.69 8.7,-7.17 v 0 0 q 4.54,-4.48 6.59,-8.32 z m -6.21,34.24 v 0 0 q -3.26,0 -3.26,-3.94 v 0 0 q 0,-3.93 5.63,-9.69 v 0 0 q 0.45,-0.45 0.64,-0.71 v 0 l 0.45,-0.64 v 0 q 0.9,-1.21 0.83,-1.53 v 0 l -0.19,-0.58 v 0 q -0.26,-0.77 -2.11,-1.12 v 0 0 q -1.86,-0.35 -3.01,-0.35 v 0 0 q -5.76,8.13 -6.66,9.28 v 0 0 q -0.89,1.15 -1.21,0.96 v 0 0 q -0.32,-0.19 -0.32,-0.45 v 0 0 q 0,-0.25 0.38,-0.77 v 0 0 q 3.46,-4.22 5.95,-9.02 v 0 0 q -0.76,-0.13 -1.15,-0.54 v 0 0 q -0.38,-0.42 -0.06,-1.41 v 0 0 q 0.32,-0.99 1.95,-2.66 v 0 0 q 1.63,-1.66 2.85,-2.24 v 0 0 q 1.21,-0.57 1.53,-0.7 v 0 0 q 0.32,-0.13 0.71,-0.13 v 0 0 q 0.77,0 -0.51,2.3 v 0 l -2.5,3.97 v 0 q 2.88,0.19 4.93,0.19 v 0 l 2.24,-0.06 v 0 q 1.09,0 1.6,0.29 v 0 0 q 0.51,0.29 0.25,0.99 v 0 0 q -0.44,1.22 -2.24,3.26 v 0 0 q -3.84,4.48 -5.76,9.54 v 0 0 q -0.44,1.22 -0.44,2.11 v 0 0 q 0,1.86 1.34,1.86 v 0 0 q 0.45,0 1.7,-0.71 v 0 0 q 1.24,-0.7 4.19,-3.36 v 0 0 q 2.94,-2.65 4.73,-5.21 v 0 0 q 0.26,-0.32 0.61,-0.16 v 0 0 q 0.35,0.16 0.35,0.32 v 0 0 q 0,0.16 -0.12,0.35 v 0 0 q -0.96,1.73 -3.46,4.42 v 0 0 q -2.5,2.68 -4.86,4.35 v 0 0 q -2.31,1.79 -5,1.79 z m 14.92,-0.9 v 0 0 q -1.03,0 -2.21,-0.6 v 0 0 q -1.19,-0.61 -2.02,-1.73 v 0 0 q -0.83,-1.12 -0.83,-2.4 v 0 0 q 0,-1.28 0.58,-2.43 v 0 0 q 1.28,-2.69 4.12,-5.22 v 0 0 q 2.85,-2.53 5.92,-4.32 v 0 0 q 3.08,-1.79 4.87,-2.24 v 0 0 q 1.79,-0.45 3.49,-0.45 v 0 0 q 1.69,0 2.91,0.87 v 0 0 q 1.21,0.86 1.21,1.82 v 0 0 q 0,0.32 -0.06,0.38 v 0 0 q -0.06,0.07 -0.32,-0.06 v 0 0 q -0.77,-1.22 -3.17,-1.22 v 0 0 q -2.4,0 -5.44,1.57 v 0 0 q -3.04,1.57 -5.73,3.94 v 0 0 q -2.24,2.11 -3.93,4.77 v 0 0 q -1.7,2.65 -1.7,3.87 v 0 0 q 0,2.37 1.35,2.37 v 0 0 q 1.34,0 4.09,-2.18 v 0 0 q 4.55,-3.84 6.21,-5.63 v 0 0 q 5.89,-6.34 6.34,-6.34 v 0 0 q 0.76,0 1.85,0.45 v 0 0 q 1.09,0.45 0.71,1.09 v 0 0 q -3.27,4.61 -3.84,9.28 v 0 0 q -0.07,0.57 -0.07,1.47 v 0 0 q 0,0.9 0.51,1.47 v 0 0 q 0.96,1.03 2.63,0.13 v 0 0 q 1.66,-0.9 4.64,-3.58 v 0 0 q 2.97,-2.69 4.77,-5.25 v 0 0 q 0.25,-0.32 0.57,-0.16 v 0 0 q 0.32,0.16 0.32,0.29 v 0 0 q 0,0.96 -3.04,4.19 v 0 0 q -3.04,3.23 -4.64,4.38 v 0 0 q -3.01,2.24 -5.57,2.24 v 0 0 q -2.43,0 -3.26,-2.43 v 0 0 q -0.19,-0.77 -0.19,-1.73 v 0 0 q 0,-2.88 1.21,-6.08 v 0 0 q -0.25,0.13 -2.36,2.56 v 0 0 q -2.12,2.43 -4.9,4.67 v 0 0 q -2.78,2.24 -5.02,2.24 z m 75.26,-14.72 v 0 l -15.87,-2.11 v 0 q -9.73,22.08 -18.88,24.9 v 0 0 q -1.67,0.57 -2.95,0.57 v 0 0 q -4.8,0 -5.88,-4.03 v 0 0 q -0.07,-0.25 -0.07,-0.54 v 0 0 q 0,-0.29 0.1,-0.71 v 0 0 q 0.09,-0.41 0.41,-0.28 v 0 0 q 0.32,0.12 0.64,1.21 v 0 0 q 0.58,1.86 2.44,2.37 v 0 0 q 1.4,0.26 2.46,0.26 v 0 0 q 1.06,0 1.82,-0.26 v 0 0 q 9.35,-2.94 17.48,-23.81 v 0 l -3.4,-0.19 v 0 q -0.89,-0.06 -1.66,-0.06 v 0 0 q -8.13,0 -9.98,5.24 v 0 0 q -0.32,0.71 -0.32,1.35 v 0 0 q 0,0.64 0.38,1.28 v 0 0 q 0.38,0.64 -0.22,0.8 v 0 0 q -0.61,0.16 -1,-0.42 v 0 0 q -0.7,-1.28 -0.7,-2.37 v 0 0 q 0,-3.9 1.44,-5.79 v 0 0 q 1.44,-1.89 3.36,-2.46 v 0 0 q 2.3,-0.64 5.12,-0.64 v 0 l 3.9,0.38 v 0 q 2.05,0.19 3.91,0.58 v 0 0 q 1.53,-4.1 3.71,-11.01 v 0 0 q -3.39,3.01 -8.32,3.52 v 0 0 q -0.64,0.06 -0.67,-0.45 v 0 0 q -0.03,-0.51 0.73,-0.64 v 0 0 q 2.76,-0.25 5.67,-2.81 v 0 0 q 2.91,-2.56 4.45,-6.02 v 0 0 q 0.12,-0.77 2.11,-0.77 v 0 0 q 1.98,0 1.92,0.77 v 0 0 q -0.39,0.96 -2.85,7.39 v 0 0 q -2.46,6.43 -4.26,10.53 v 0 0 q 1.67,0.32 4.87,1.09 v 0 0 q 6.53,1.47 10.56,1.92 v 0 0 q 3.71,-7.87 4.64,-10.08 v 0 0 q 0.93,-2.21 0.93,-2.79 v 0 0 q 0,-0.57 -0.2,-0.89 v 0 0 q 0.2,-1.79 2.79,-4.71 v 0 0 q 2.59,-2.91 4.89,-2.91 v 0 0 q 1.03,0 2.47,0.74 v 0 0 q 1.44,0.73 1.44,1.89 v 0 0 q 0,0.25 -0.32,0.06 v 0 0 q -0.32,-0.19 -0.45,-0.19 v 0 0 q -1.6,0 -3.71,2.27 v 0 0 q -2.11,2.27 -4.16,5.86 v 0 0 q -3.14,5.56 -5.57,11 v 0 0 q 5.5,0 7.36,-2.3 v 0 0 q 0.32,-0.58 0.64,-0.16 v 0 0 q 0.32,0.42 -0.22,1.22 v 0 0 q -0.55,0.8 -2.4,1.56 v 0 0 q -1.86,0.77 -5.89,0.77 v 0 0 q -3.01,7.11 -3.01,11.14 v 0 0 q 0,3.13 1.82,3.13 v 0 0 q 1.83,0 5.44,-2.81 v 0 0 q 3.62,-2.82 6.82,-7.11 v 0 0 q 0.19,-0.25 0.58,-0.09 v 0 0 q 0.38,0.16 0.22,0.57 v 0 0 q -0.16,0.42 -0.99,1.64 v 0 0 q -2.69,3.64 -6.59,6.78 v 0 0 q -2.88,2.24 -6.28,2.24 v 0 0 q -1.72,0 -2.65,-1.02 v 0 0 q -0.93,-1.03 -1.03,-1.92 v 0 0 q -0.09,-0.9 -0.09,-1.67 v 0 0 q 0,-0.77 0.25,-2.37 v 0 0 q 0.64,-4.09 2.82,-8.64 z m 16.06,14.72 v 0 0 q -1.02,0 -2.2,-0.6 v 0 0 q -1.19,-0.61 -2.02,-1.73 v 0 0 q -0.83,-1.12 -0.83,-2.4 v 0 0 q 0,-1.28 0.57,-2.43 v 0 0 q 1.28,-2.69 4.13,-5.22 v 0 0 q 2.85,-2.53 5.92,-4.32 v 0 0 q 3.07,-1.79 4.87,-2.24 v 0 0 q 1.79,-0.45 3.48,-0.45 v 0 0 q 1.7,0 2.92,0.87 v 0 0 q 1.21,0.86 1.21,1.82 v 0 0 q 0,0.32 -0.06,0.38 v 0 0 q -0.07,0.07 -0.32,-0.06 v 0 0 q -0.77,-1.22 -3.17,-1.22 v 0 0 q -2.4,0 -5.44,1.57 v 0 0 q -3.04,1.57 -5.73,3.94 v 0 0 q -2.24,2.11 -3.93,4.77 v 0 0 q -1.7,2.65 -1.7,3.87 v 0 0 q 0,2.37 1.34,2.37 v 0 0 q 1.35,0 4.1,-2.18 v 0 0 q 4.54,-3.84 6.21,-5.63 v 0 0 q 5.89,-6.34 6.33,-6.34 v 0 0 q 0.77,0 1.86,0.45 v 0 0 q 1.09,0.45 0.7,1.09 v 0 0 q -3.26,4.61 -3.84,9.28 v 0 0 q -0.06,0.57 -0.06,1.47 v 0 0 q 0,0.9 0.51,1.47 v 0 0 q 0.96,1.03 2.63,0.13 v 0 0 q 1.66,-0.9 4.64,-3.58 v 0 0 q 2.97,-2.69 4.76,-5.25 v 0 0 q 0.26,-0.32 0.58,-0.16 v 0 0 q 0.32,0.16 0.32,0.29 v 0 0 q 0,0.96 -3.04,4.19 v 0 0 q -3.04,3.23 -4.64,4.38 v 0 0 q -3.01,2.24 -5.57,2.24 v 0 0 q -2.43,0 -3.26,-2.43 v 0 0 q -0.19,-0.77 -0.19,-1.73 v 0 0 q 0,-2.88 1.21,-6.08 v 0 0 q -0.25,0.13 -2.37,2.56 v 0 0 q -2.11,2.43 -4.89,4.67 v 0 0 q -2.79,2.24 -5.03,2.24 z m 28.36,-14.59 v 0 0 q -3.27,0.83 -3.52,0.83 v 0 0 q -0.64,0 -0.64,-0.8 v 0 0 q 0,-0.8 1.15,-1.56 v 0 0 q 0.25,-0.13 0.45,-0.2 v 0 l 3.71,-0.7 v 0 q 4.16,-9.41 8.13,-14.59 v 0 l 1.98,-2.5 v 0 q 0.7,-0.83 2.05,-2.05 v 0 0 q 2.56,-2.43 5.28,-2.43 v 0 0 q 2.72,0 3.68,1.67 v 0 0 q 0.32,0.57 0.32,1.66 v 0 0 q 0,1.09 -0.96,3.07 v 0 0 q -3.97,6.98 -9.86,13.12 v 0 l 1.6,-0.38 v 0 q 1.47,-0.39 2.47,-0.39 v 0 0 q 0.99,0 1.08,0.32 v 0 0 q 0.1,0.32 -0.6,0.74 v 0 0 q -0.71,0.42 -1.41,0.64 v 0 0 q -0.71,0.22 -1.79,0.64 v 0 0 q -1.09,0.42 -3.84,0.93 v 0 0 q -3.65,3.71 -8.45,7.68 v 0 0 q -0.9,2.56 -0.9,4.35 v 0 0 q 0,1.79 0.64,2.82 v 0 0 q 1.09,1.72 3.65,0.25 v 0 0 q 1.92,-1.02 4.86,-3.74 v 0 0 q 2.95,-2.72 4.55,-4.96 v 0 0 q 0.13,-0.19 0.38,-0.19 v 0 0 q 0.58,0 0.32,0.83 v 0 0 q -0.96,1.73 -3.55,4.41 v 0 0 q -2.59,2.69 -4.7,4.26 v 0 0 q -2.12,1.57 -4.23,1.57 v 0 0 q -4.86,0 -4.86,-4.74 v 0 0 q 0,-0.19 0,-0.38 v 0 0 q 0.19,-3.33 3.01,-10.18 z m 19.9,-18.75 v 0 0 q 0.77,-1.41 0.77,-2.18 v 0 0 q 0,-1.34 -1.09,-1.34 v 0 0 q -0.9,0 -2.24,1.02 v 0 0 q -5.12,3.97 -9.92,12.55 v 0 l -2.94,5.63 4.99,-0.9 v 0 q 6.78,-7.8 10.43,-14.78 z m -12.86,17.34 v 0 0 q -3.59,0.71 -3.78,0.77 v 0 0 q -0.26,0.51 -1.47,3.78 v 0 0 q 2.05,-1.35 5.25,-4.55 z m 8.89,16 v 0 0 q -1.02,0 -2.21,-0.6 v 0 0 q -1.18,-0.61 -2.01,-1.73 v 0 0 q -0.83,-1.12 -0.83,-2.4 v 0 0 q 0,-1.28 0.57,-2.43 v 0 0 q 1.28,-2.69 4.13,-5.22 v 0 0 q 2.85,-2.53 5.92,-4.32 v 0 0 q 3.07,-1.79 4.86,-2.24 v 0 0 q 1.8,-0.45 3.49,-0.45 v 0 0 q 1.7,0 2.91,0.87 v 0 0 q 1.22,0.86 1.22,1.82 v 0 0 q 0,0.32 -0.06,0.38 v 0 0 q -0.07,0.07 -0.32,-0.06 v 0 0 q -0.77,-1.22 -3.17,-1.22 v 0 0 q -2.4,0 -5.44,1.57 v 0 0 q -3.04,1.57 -5.73,3.94 v 0 0 q -2.24,2.11 -3.94,4.77 v 0 0 q -1.69,2.65 -1.69,3.87 v 0 0 q 0,2.37 1.34,2.37 v 0 0 q 1.35,0 4.1,-2.18 v 0 0 q 4.54,-3.84 6.21,-5.63 v 0 0 q 5.88,-6.34 6.33,-6.34 v 0 0 q 0.77,0 1.86,0.45 v 0 0 q 1.09,0.45 0.7,1.09 v 0 0 q -3.26,4.61 -3.84,9.28 v 0 0 q -0.06,0.57 -0.06,1.47 v 0 0 q 0,0.9 0.51,1.47 v 0 0 q 0.96,1.03 2.62,0.13 v 0 0 q 1.67,-0.9 4.64,-3.58 v 0 0 q 2.98,-2.69 4.77,-5.25 v 0 0 q 0.26,-0.32 0.58,-0.16 v 0 0 q 0.32,0.16 0.32,0.29 v 0 0 q 0,0.96 -3.04,4.19 v 0 0 q -3.04,3.23 -4.64,4.38 v 0 0 q -3.01,2.24 -5.57,2.24 v 0 0 q -2.43,0 -3.26,-2.43 v 0 0 q -0.2,-0.77 -0.2,-1.73 v 0 0 q 0,-2.88 1.22,-6.08 v 0 0 q -0.26,0.13 -2.37,2.56 v 0 0 q -2.11,2.43 -4.89,4.67 v 0 0 q -2.79,2.24 -5.03,2.24 z m 26.69,-0.06 v 0 0 q -0.83,0.96 -0.35,1.54 v 0 0 q 0.48,0.57 1.09,0.57 v 0 0 q 0.6,0 1.24,-0.19 v 0 0 q 2.76,-0.83 5.35,-3.3 v 0 0 q 2.59,-2.46 2.59,-5.02 v 0 0 q 0,-1.41 -3.14,-3.07 v 0 0 q -1.47,-0.77 -1.66,-0.9 v 0 0 q -1.73,-1.15 -2.18,-2.3 v 0 0 q -0.89,1.53 -2.88,4.41 v 0 0 q -0.44,0.52 -0.83,0.23 v 0 0 q -0.38,-0.29 -0.06,-0.8 v 0 0 q 2.62,-3.59 3.45,-6.02 v 0 0 q 0.45,-3.52 5.12,-6.33 v 0 0 q 4.68,-2.82 8.52,-2.82 v 0 0 q 2.43,0 3.42,0.86 v 0 0 q 0.99,0.87 0.99,1.7 v 0 0 q 0,0.83 -0.48,1.92 v 0 0 q -0.48,1.09 -1.95,2.05 v 0 0 q -0.38,0.25 -0.64,-0.13 v 0 0 q -0.13,-0.38 0.54,-1.06 v 0 0 q 0.68,-0.67 0.87,-1.82 v 0 0 q 0.19,-1.15 -1.03,-1.41 v 0 0 q -0.19,0 -0.38,0 v 0 0 q -2.5,0 -6.24,1.86 v 0 0 q -3.74,1.85 -5.86,4.8 v 0 0 q -0.83,1.09 -0.83,2.21 v 0 0 q 0,1.12 1.54,2.01 v 0 0 q 0.64,0.39 2.17,1.22 v 0 0 q 1.54,0.83 2.18,1.21 v 0 0 q 0.64,0.39 1.54,1.22 v 0 0 q 0.89,0.83 0.96,1.54 v 0 0 q 0.32,1.92 -1.8,4.22 v 0 0 q -3,3.33 -8.96,4.67 v 0 0 q -1.34,0.32 -2.72,0.32 v 0 0 q -1.37,0 -1.88,-1.02 v 0 0 q -0.2,-0.26 -0.2,-0.8 v 0 0 q 0,-0.55 1.03,-1.76 v 0 0 q 0.96,-0.96 3.07,-1.86 v 0 0 q 0.19,-0.06 0.32,0.07 v 0 0 q 0.13,0.12 0.06,0.32 v 0 0 q -0.06,0.19 -0.67,0.44 v 0 0 q -0.61,0.26 -1.31,1.22 z"
       fill="#000000"
       id="path27"
       style="filter:url(#editing-hover)"
       transform="matrix(0.18370351,0,0,0.18370351,93.063251,3.752408)" />
    <g
       id="g107"
       transform="matrix(0.19116146,0,0,0.19116146,1.5236734,6.4239248)">
      <use
         xlink:href="#a1XN0Q6vFl"
         opacity="1"
         fill="#000000"
         fill-opacity="1"
         id="use101"
         x="0"
         y="0"
         width="100%"
         height="100%" />
      <g
         id="g105">
        <use
           xlink:href="#a1XN0Q6vFl"
           opacity="1"
           fill-opacity="0"
           stroke="#000000"
           stroke-width="1"
           stroke-opacity="1"
           id="use103"
           x="0"
           y="0"
           width="100%"
           height="100%" />
      </g>
    </g>
  </g>
  <style
     id="style33">text {
  font-size: 64px;
  font-family: Arial Black;
  dominant-baseline: central;
  text-anchor: middle;
}</style>
  <style
     id="style77">text {
  font-size: 64px;
  font-family: Arial Black;
  dominant-baseline: central;
  text-anchor: middle;
}</style>
</svg>
